<?xml version="1.0" encoding="utf-8"?>
<!-- Generator: Adobe Illustrator 28.0.0, SVG Export Plug-In . SVG Version: 6.00 Build 0)  -->
<svg version="1.1" id="_レイヤー_1" xmlns="http://www.w3.org/2000/svg" xmlns:xlink="http://www.w3.org/1999/xlink" x="0px"
	 y="0px" viewBox="0 0 3061.4 3061.4" style="enable-background:new 0 0 3061.4 3061.4;" xml:space="preserve">
<style type="text/css">
	.st0{filter:url(#Adobe_OpacityMaskFilter);}
	.st1{fill:#FFFFFF;}
	.st2{mask:url(#SVGID_1_);}
	.st3{opacity:0.73;fill:#F7F4BF;enable-background:new    ;}
	.st4{opacity:0.73;fill:#E2BFE2;enable-background:new    ;}
	.st5{opacity:0.73;fill:#C6AC91;enable-background:new    ;}
	.st6{opacity:0.73;fill:#EAB7C1;enable-background:new    ;}
	.st7{opacity:0.73;fill:#C5DDBF;enable-background:new    ;}
	.st8{fill:#7C7B7B;}
	.st9{filter:url(#Adobe_OpacityMaskFilter_00000021800921144431613610000014575829751719905947_);}
	.st10{mask:url(#SVGID_00000038395852206675529350000015573586210819673496_);}
</style>
<g>
	<g>
		
			<image style="overflow:visible;" width="7000" height="4672" xlink:href="../../../Downloads/white-plate-in-flat-lay-style-with-dried-flowers.jpg"  transform="matrix(0.24 0 0 0.24 3413.3682 1464.4185)">
		</image>
		<defs>
			<filter id="Adobe_OpacityMaskFilter" filterUnits="userSpaceOnUse" x="3391.7" y="1484.7" width="1723.3" height="1080.8">
				<feColorMatrix  type="matrix" values="1 0 0 0 0  0 1 0 0 0  0 0 1 0 0  0 0 0 1 0"/>
			</filter>
		</defs>
		<mask maskUnits="userSpaceOnUse" x="3391.7" y="1484.7" width="1723.3" height="1080.8" id="SVGID_1_">
			<g class="st0">
				<g>
					<polygon class="st1" points="4286,2456.4 4273,2454.4 4243,2443.4 4228,2435.4 4211,2429.4 4195,2420.4 4173,2413.4 
						4158,2404.4 4141,2399.4 4124,2389.4 4098,2381.4 4085,2373.4 4072,2369.4 4051,2358.4 4033,2353.4 4016,2343.4 4006,2340.4 
						3981,2328.4 3964,2323.4 3933,2307.4 3922,2293.4 3922,2273.4 3928,2252.4 3937,2238.4 3941,2228.4 3946,2222.4 3954,2204.4 
						3954,2201.4 3959,2194.4 3967,2173.4 3978,2153.4 3982,2140.4 3987,2131.4 3994,2111.4 4000,2101.4 4008,2079.4 4027,2041.4 
						4041,2005.4 4054,1980.4 4060,1963.4 4066,1954.4 4072,1937.4 4079,1925.4 4085,1905.4 4092,1894.4 4098,1875.4 4105,1866.4 
						4111,1844.4 4131,1810.4 4139,1788.4 4161,1744.4 4168,1724.4 4189,1683.4 4192,1674.4 4204,1660.4 4210,1656.4 4218,1654.4 
						4235,1654.4 4266,1666.4 4282,1674.4 4293,1677.4 4316,1689.4 4336,1696.4 4344,1702.4 4360,1709.4 4374,1718.4 4395,1724.4 
						4407,1733.4 4430,1745.4 4467,1756.4 4512,1779.4 4529,1785.4 4551,1798.4 4560,1805.4 4568,1814.4 4572,1822.4 4572,1831.4 
						4554,1861.4 4550,1874.4 4540,1891.4 4537,1903.4 4529,1915.4 4520,1937.4 4514,1944.4 4509,1960.4 4501,1974.4 4496,1992.4 
						4490,2005.4 4486,2010.4 4481,2029.4 4472,2046.4 4469,2058.4 4461,2071.4 4448,2099.4 4442,2120.4 4434,2133.4 4427,2153.4 
						4421,2163.4 4419,2172.4 4408,2194.4 4406,2204.4 4397,2222.4 4393,2239.4 4383,2260.4 4381,2268.4 4356,2317.4 4351,2331.4 
						4343,2345.4 4339,2357.4 4327,2377.4 4313,2411.4 4303,2429.4 4297,2450.4 4294,2453.4 					"/>
				</g>
			</g>
		</mask>
		<g class="st2">
			<g>
				<path class="st3" d="M4382.2,1813.3c90,26.2,103.4,124,76.1,201.8c-7.6,21.7-18,42.1-29.9,61.8l0,0
					c-50.4,79.2-132.7,147.5-227.5,162.9c-25.8,4.2-52.1,3.8-77.3-3.2l0,0c-87.7-26.1-102.2-121.2-76.4-197.9
					c7.2-21.5,17.2-41.8,28.7-61.4l0,0c49.6-80.3,131.4-149.2,226.2-166.3C4328.7,1806.2,4356,1806.3,4382.2,1813.3z"/>
			</g>
			<g>
				<path class="st4" d="M4288.5,1877.7c61.1,10.7,122.1,21.4,183.2,32c68.2,12.1,2.9,97.7-20.5,121.6l0,0c-17,17.2-34,34.4-51,51.5
					l0,0c-26.8,26.9-58,49.7-92,66.8c-27.8,14-62.5,28.2-94.3,22.6c-59.7-10.7-119.4-21.4-179.1-32.1
					c-66.1-11.8-5.6-94.9,17.6-119.1l0,0c16.5-17.2,32.9-34.3,49.4-51.5l0,0c38.8-40.2,89.8-75.5,144.7-89
					C4260.1,1877.3,4274.5,1875.4,4288.5,1877.7z"/>
			</g>
			<g>
				<path class="st5" d="M4311.6,1929.4c54.9,15.9,44,81.5,20.9,119.1l0,0c-26.8,43-83.8,86.9-137.7,72.2l0,0
					c-53.5-15.9-44-79.7-21.6-117.1l0,0C4199.7,1959.8,4257.1,1914.8,4311.6,1929.4z"/>
			</g>
			<g>
				<path class="st6" d="M4369.9,1833.6c80.2,23,93.2,110.2,69.7,179.8c-7,20.6-16.7,39.9-27.9,58.4l0,0
					c-45.8,72-121.1,134.4-207.5,147.6c-22.7,3.4-45.9,3-68-3.2l0,0c-78.4-23.1-92.2-107.9-69.8-176.8c6.6-20.2,15.9-39.2,26.6-57.6
					l0,0c46-74.4,123.1-138.7,211.7-151.5C4326.3,1827.2,4348.7,1827.8,4369.9,1833.6z"/>
			</g>
			<g>
				<path class="st7" d="M4355.1,1857.9c70.6,20,81.6,97.3,60.4,158.3c-6.1,17.4-14.3,34-23.9,49.7l0,0
					c-38.8,61.3-101.8,113.7-174.4,127.7c-21.9,4.2-44.6,4.5-66.2-1.6l0,0c-68.8-20-80.6-95-60.6-155.2c5.7-17.3,13.7-33.7,23-49.4
					l0,0c38.2-62.2,100.9-115,173.5-130.3C4309.3,1852.4,4332.8,1851.8,4355.1,1857.9z"/>
			</g>
			<g>
				<g>
					<g>
						<g>
							<path class="st8" d="M4103.6,2270.6c-53.2-15.5-89.3-57.5-99.5-111.6l0,0c-9.1-50.3,2.4-102.2,22.9-148.3
								c6.3-14.1,13.5-27.8,21.4-41.1l0,0c30.8-51.3,72.3-96.1,121-130.8c13.9-9.9,28.5-19,43.5-27.2l0,0
								c43.3-23.3,92-39.7,141.6-39c16.1,0.2,32.1,2.3,47.6,6.6l0,0c54.5,15.5,91.1,58.6,100.9,114l0,0
								c8.6,50.9-3.6,103.2-24.9,149.6c-6.7,14.6-14.3,28.7-22.7,42.3l0,0c-31.4,50.8-73.5,95.2-122.5,129.3
								c-13.9,9.6-28.4,18.4-43.3,26.3l0,0c-41.5,21.7-87.9,36.9-135.2,36.8C4137.2,2277.5,4120.1,2275.3,4103.6,2270.6
								L4103.6,2270.6z M4394.3,1792.2c-60.7-16.7-125.5,1.7-179.4,30.7l0,0c-50,27.1-94.1,65.1-128.9,110.1
								c-9.8,12.7-18.9,25.9-27.1,39.7l0,0c-24.2,40.5-42.1,86.3-44.8,133.8c-0.9,15.3-0.1,30.7,2.6,45.8l0,0
								c9.7,51.3,43.9,91.2,94.4,105.9l0,0c59.5,16.8,123.2-0.5,176.5-28.4l0,0c50.1-26.4,94.3-63.7,129.5-108
								c10-12.6,19.3-25.9,27.8-39.6l0,0c25.5-41.5,44.4-88.6,47.3-137.6c0.9-14.8,0.2-29.7-2.3-44.3l0,0
								C4480.6,1847.7,4445.9,1806.9,4394.3,1792.2L4394.3,1792.2z"/>
						</g>
						<g>
							<path class="st8" d="M4107.3,2264.4c-51.8-15.1-87-56-96.9-108.7l0,0c-8.8-48.9,2.3-99.3,22.2-144.2
								c6.2-13.9,13.2-27.3,21-40.4l0,0c30.2-50.3,71-94.2,118.9-128.1c13.3-9.4,27.1-18,41.4-25.8l0,0
								c41.7-22.5,88.6-38.3,136.4-38c16.2,0.1,32.3,2.2,47.9,6.5l0,0c53.1,15.1,88.7,57.1,98.3,111l0,0
								c8.3,49.7-3.5,100.7-24.3,145.9c-6.5,14.1-13.9,27.8-22,41l0,0c-30.9,49.9-72.1,93.3-120.4,126.6c-13.2,9.1-27,17.5-41.2,25
								l0,0C4233.9,2263.9,4168.4,2281.7,4107.3,2264.4L4107.3,2264.4z M4371.8,1829.2c-87.4-24.3-182.1,32.9-239.6,94.6
								c-16.4,17.6-30.7,36.9-43.3,57.3l0,0c-35.1,60-61,148.8-9.5,208c14.1,16.3,32.9,27.2,53.5,33.3l0,0
								c86.7,24.6,180.8-31.6,238.3-92.4c16.4-17.3,30.7-36.2,43.4-56.4l0,0c36.2-60.4,63.7-151.1,11.2-211.2
								C4411.6,1846.1,4392.5,1835.1,4371.8,1829.2L4371.8,1829.2z"/>
						</g>
					</g>
					<g>
						<path class="st8" d="M4414.2,1885.6c1.7,1.9,2.7,4.3,3,6.9l0,0c-3.7,40.8-42.1,45.8-75.7,49.8l0,0
							c5.9,22.2,26.1,43.6,5.8,64.6l0,0l-1.2,0.5c-2.8,0.2-5.4-0.6-7.5-2.4l-0.7-1.1l0,0c-7.7-18.3-13.1-37.4-16.6-57
							c-12.6,3-25.3,6.1-37.9,9.1l0,0c-2.7,20.5-7.2,58.2-32.9,62.5c-25.9,4.4-51.4-25.8-65.9-43.2l0,0
							c-22.5-19.9-54.3,11.9-58.6,33.4l0,0c-10.4,37.4-15.4,78.6-0.2,115.5l0,0c1.7,3.6,3.2,7.1,5.7,10.3l3.2,2.3l3.9,0.5
							c7-1.3,13.3-5.1,19.5-8.5l0,0c19.3-10.6,38.7-20.9,58.1-31.3l0,0c1.2,0.6,2.4,1.1,3.6,1.7l0,0c-2.2,4.1-3.7,9-7.4,12.1l0,0
							c-25.6,15-50.8,30.3-71.5,51.8l0,0c-5.2,3.3-11.8,5.4-17.8,2.9l0,0c-41.5-34.5-30.4-101.7-19.1-147.7l0,0
							c4.8-16.8,11.3-33,25-44.5c13.3-11.1,30.2-15.3,46.9-18.3c0.4-6.9-1.1-14.2,1.1-21l1.5-2.4l0,0c14-13.2,32.2-39.5,53.9-38.4
							c1.6,0.4,3.3,0.7,4.9,1.1c8.4,2.7,16.8,5.7,23.6,11.5c6.8,5.9,8.8,13.1,12.8,20.7c8.7,16.8,32.5,6.7,46.6,2.6l0,0
							c2.1-22.4,11.8-68.5,38.6-73.9c1.7,0,3.4-0.1,5.1-0.1c-14.4,20.9-27.8,44.1-23.8,70.5l0,0
							C4369.6,1916.2,4394.4,1911.7,4414.2,1885.6L4414.2,1885.6C4414.2,1885.5,4414.2,1885.6,4414.2,1885.6L4414.2,1885.6z
							 M4197.7,1967.5c-0.9,0.8-1.7,1.7-2.6,2.5l0,0c12.2,9.4,25.1,20.9,40.6,24.1c18.8,3.8,28.5-10,34.7-25.6l0,0l-1-3.1l-2.3-2.3
							C4248,1952.5,4218.2,1968,4197.7,1967.5L4197.7,1967.5L4197.7,1967.5C4197.7,1967.5,4197.7,1967.5,4197.7,1967.5
							L4197.7,1967.5L4197.7,1967.5L4197.7,1967.5L4197.7,1967.5L4197.7,1967.5C4197.7,1967.5,4197.7,1967.5,4197.7,1967.5
							L4197.7,1967.5z M4266.5,1942.6c-8.3-14.9-20.3-29-38.9-28.5c-12.2,0.3-35.2,10.6-32.1,26l0.9,1.9l1.5,1.7
							c3.5,2.8,8,3.5,12.4,3.6C4229,1946.4,4247.7,1944.3,4266.5,1942.6C4266.5,1942.6,4266.5,1942.6,4266.5,1942.6L4266.5,1942.6
							L4266.5,1942.6L4266.5,1942.6L4266.5,1942.6L4266.5,1942.6L4266.5,1942.6L4266.5,1942.6L4266.5,1942.6L4266.5,1942.6z"/>
						<path class="st8" d="M4273.4,2085.7c-2.4,17.8-4.8,35.7-7.1,53.5l0,0c36-19.3,61.5-49.9,84.4-82.9l0,0c1,3.7,2.9,7.3,3.1,11.1
							l-0.4,1.2l0,0c-23.8,39.6-52.4,75.5-94.6,96.2l0,0c-6.9,2.7-13.3,4.9-20.9,4l-4.6-2.1l-2-3.9l1.4-5.9l5.7-8l0,0
							c15.9-18.8,18.3-41.9,29.5-63.1l0,0C4269.7,2085.7,4271.5,2085.7,4273.4,2085.7L4273.4,2085.7
							C4273.4,2085.7,4273.4,2085.7,4273.4,2085.7C4273.4,2085.7,4273.4,2085.7,4273.4,2085.7L4273.4,2085.7L4273.4,2085.7
							L4273.4,2085.7z"/>
					</g>
				</g>
			</g>
			<g>
				<path class="st8" d="M4992.4,1515.6c-1,8.2-2.1,16.5-3.1,24.7l0,0c-4.7,27.5-18.3,56.8-41.6,73.4l0,0
					c-90.1,60.7-180.1,121.3-270.2,182c-92.1,62-184.2,124-276.3,186.1c-93.5,62.9-186.9,125.9-280.4,188.8
					c-90.3,60.8-180.5,121.6-270.8,182.3c-92.2,62.1-184.3,124.1-276.5,186.2c-10.5,7.1-21,14.1-31.5,21.2l0,0
					c-4.1,2.7-8.6,4.7-13.5,5l-3.7-0.5l-3.3-1.5l-2.7-2.5c-5.6-7.4-5.2-16.9-4.6-25.7l0,0l0,0l0,0h0l0,0h0h0c0,0,0,0,0,0
					c4.2-26.7,16.8-53.9,38.7-70.6l0,0c91.3-63.1,182.6-126.2,273.9-189.3c91.2-63,182.5-126.1,273.7-189.1
					c92.9-64.2,185.9-128.4,278.8-192.6c91.5-63.2,182.9-126.4,274.4-189.6c93-64.3,186.1-128.6,279.1-192.8c10.1-7,20.3-14,30.4-21
					l0,0c5-3.3,10.7-6.2,17-5.5l3.3,1l2.9,1.9C4993.8,1494.8,4993.3,1506.2,4992.4,1515.6L4992.4,1515.6
					C4992.4,1515.6,4992.4,1515.6,4992.4,1515.6C4992.4,1515.6,4992.4,1515.6,4992.4,1515.6L4992.4,1515.6z"/>
			</g>
			<g>
				<path class="st8" d="M5093.5,1782c-7.8,8.9-15.6,17.8-23.3,26.6l0,0c-23.2,25.5-52.7,53.9-86.4,64.5l0,0
					c-102.1,28.3-204.2,56.6-306.2,84.8c-104.2,28.9-208.4,57.7-312.5,86.6c-101.8,28.2-203.6,56.4-305.4,84.6
					c-103.7,28.7-207.5,57.5-311.2,86.2c-103.1,28.6-206.3,57.2-309.4,85.7c-11.1,3.1-22.2,6.2-33.3,9.2c-2.9,0.8-6,1.2-9,0.8
					l-2.8-1.2l-1.7-2.2l-0.5-3.1c1-13.3,11.9-25.2,19.8-35.1l0,0l0,0l0,0h0h0v0v0v0l0,0c21.8-24.7,49.4-51.9,81.4-62.4l0,0
					c104.4-30.3,208.7-60.7,313.1-91c104.1-30.3,208.2-60.5,312.3-90.8c106.5-31,213.1-61.9,319.6-92.9
					c105.9-30.8,211.7-61.5,317.6-92.3c104-30.2,208-60.5,312-90.7c10.9-3.2,21.8-6.3,32.8-9.5l0,0c2.9-0.9,6-1.3,9-1.2l2.9,0.9
					l1.9,1.8l0.9,2.6C5115.5,1758.1,5101.8,1772,5093.5,1782L5093.5,1782C5093.5,1782,5093.5,1782,5093.5,1782L5093.5,1782z"/>
			</g>
		</g>
		<g>
			<g>
			</g>
		</g>
	</g>
</g>
<g>
	<g>
		
			<image style="overflow:visible;" width="1000" height="667" xlink:href="6BFDC548FA6ECEA.jpg"  transform="matrix(1 0 0 1 917.628 1071.2988)">
		</image>
		<defs>
			
				<filter id="Adobe_OpacityMaskFilter_00000091007453566106061980000002091094510049864638_" filterUnits="userSpaceOnUse" x="1260.2" y="1261.3" width="389.5" height="278.6">
				<feColorMatrix  type="matrix" values="1 0 0 0 0  0 1 0 0 0  0 0 1 0 0  0 0 0 1 0"/>
			</filter>
		</defs>
		
			<mask maskUnits="userSpaceOnUse" x="1260.2" y="1261.3" width="389.5" height="278.6" id="SVGID_00000114070369067825961680000012451310154156323213_">
			<g style="filter:url(#Adobe_OpacityMaskFilter_00000091007453566106061980000002091094510049864638_);">
				<g>
					<polygon class="st1" points="1674.6,1623.8 1666.6,1625.8 1596.6,1607.8 1589.6,1604.8 1565.6,1599.8 1554.6,1595.8 
						1541.6,1593.8 1482.6,1576.8 1463.6,1573.8 1459.6,1571.8 1453.6,1571.8 1389.6,1552.8 1369.6,1549.8 1344.6,1542.8 
						1327.6,1541.8 1318.6,1536.8 1306.6,1532.8 1283.6,1528.8 1270.6,1522.8 1241.6,1513.8 1182.6,1500.8 1153.6,1489.8 
						1147.6,1484.8 1147.6,1481.8 1144.6,1476.8 1145.6,1455.8 1148.6,1437.8 1156.6,1409.8 1159.6,1389.8 1162.6,1382.8 
						1163.6,1367.8 1170.6,1324.8 1170.6,1313.8 1172.6,1306.8 1181.6,1289.8 1186.6,1267.8 1197.6,1245.8 1205.6,1213.8 
						1207.6,1197.8 1217.6,1176.8 1221.6,1157.8 1226.6,1144.8 1246.6,1143.8 1261.6,1148.8 1275.6,1150.8 1288.6,1155.8 
						1313.6,1160.8 1334.6,1167.8 1345.6,1168.8 1369.6,1177.8 1379.6,1178.8 1407.6,1186.8 1419.6,1187.8 1423.6,1190.8 
						1432.6,1193.8 1459.6,1198.8 1471.6,1202.8 1499.6,1206.8 1522.6,1207.8 1556.6,1213.8 1590.6,1214.8 1594.6,1216.8 
						1595.6,1225.8 1598.6,1229.8 1619.6,1239.8 1638.6,1242.8 1664.6,1250.8 1677.6,1252.8 1700.6,1260.8 1714.6,1268.8 
						1749.6,1277.8 1754.6,1281.8 1762.6,1293.8 1762.6,1302.8 1759.6,1311.8 1758.6,1321.8 1753.6,1336.8 1750.6,1352.8 
						1742.6,1374.8 1735.6,1405.8 1726.6,1433.8 1723.6,1450.8 1708.6,1500.8 1695.6,1556.8 1691.6,1564.8 1689.6,1576.8 
						1679.6,1607.8 1678.6,1616.8 					"/>
				</g>
			</g>
		</mask>
		<g style="mask:url(#SVGID_00000114070369067825961680000012451310154156323213_);">
			<g>
				<path class="st3" d="M1355.3,1417.9c17.2,6.5,25.6,19.6,23.1,38l0,0c-6.7,17.3-20.1,24.8-38.3,22.2l0,0
					c-17.2-6.5-25.4-19.6-23.1-38l0,0C1323.6,1422.8,1337.1,1415.4,1355.3,1417.9z"/>
				<path class="st4" d="M1370.6,1318.5c12.3,3.2,24.6,6.4,36.9,9.6c9.3,2.8,14.7,11.8,12.6,21.4l0,0c-0.7,2.8-1.4,5.5-2.1,8.3l0,0
					c-2.7,9.2-11.9,14.6-21.3,12.5c-12.2-3.1-24.5-6.3-36.7-9.4l0,0c-9.2-2.8-14.9-11.8-12.8-21.3l0,0c0.7-2.8,1.4-5.5,2-8.3l0,0
					C1351.9,1321.9,1361.1,1316.4,1370.6,1318.5z"/>
				<path class="st5" d="M1375.9,1381.4c7.6,2.1,12.2,9.6,10.5,17.3l0,0c-2.1,7.5-9.9,11.9-17.4,10.1l0,0
					c-7.5-2.1-12.2-9.6-10.5-17.3l0,0C1360.6,1384,1368.3,1379.7,1375.9,1381.4z"/>
				<path class="st6" d="M1312.6,1348.5c15.6,5.9,23.9,18.1,21.4,34.9l0,0c-4.9,15.8-18.9,23-34.7,20.3l0,0
					c-15.6-5.5-23.7-18.3-21.5-34.7l0,0C1283.1,1352.9,1296.2,1346.3,1312.6,1348.5z"/>
				<path class="st7" d="M1434.3,1419.5c13.1,4.1,20.8,16.2,17.8,29.8l0,0c-4.5,13.2-16.5,20.3-30.3,17.7l0,0
					c-13.3-3.8-20.8-16.4-18-29.8l0,0C1407.7,1423.9,1421,1416.7,1434.3,1419.5z"/>
				<g>
					<g>
						<g>
							<path class="st8" d="M1405.5,1429.2c-9.4-2.5-17.3-8.3-22.5-16.6l0,0c-4.9-8.4-6.3-18.2-4.1-27.6l0,0
								c2.5-9.5,8.6-17.4,16.9-22.4l0,0c8.5-4.9,18.5-6.3,28.1-3.9c9.5,2.6,17.4,8.5,22.5,16.9l0,0c4.8,8.5,6.1,18.1,3.7,27.6l0,0
								c-2.6,9.3-8.7,17.2-17,22.2l0,0C1424.8,1430.2,1414.9,1431.4,1405.5,1429.2L1405.5,1429.2z M1423.4,1360.5
								c-9.2-2.2-18.4-0.9-26.6,3.7l0,0c-7.9,4.8-13.6,12.3-16,21.2l0,0c-2.1,9-0.8,18.2,3.9,26.2l0,0c4.9,7.9,12.4,13.3,21.3,15.8
								l0,0c9,2.2,18.3,0.8,26.3-3.7l0,0c7.9-4.7,13.7-12.2,16.1-21l0,0c2.2-8.9,1-18.2-3.6-26.1l0,0
								C1440,1368.5,1432.4,1362.9,1423.4,1360.5L1423.4,1360.5z"/>
						</g>
						<g>
							<path class="st8" d="M1405.7,1428.3c-9.2-2.5-16.9-8.1-21.9-16.2l0,0c-4.8-8.1-6.2-17.7-4-26.9l0,0
								c2.5-9.2,8.3-16.9,16.5-21.8l0,0c8.4-4.7,17.9-6.1,27.3-3.8c9.3,2.5,16.9,8.3,21.9,16.5l0,0c4.7,8.3,5.9,17.6,3.7,26.9l0,0
								c-2.5,9.2-8.5,16.7-16.5,21.6l0,0C1424.5,1429.2,1414.9,1430.5,1405.7,1428.3L1405.7,1428.3z M1422,1365.8
								c-17.1-2.4-29.7,4.8-36,21.1l0,0c-2.3,17,5.1,29.3,21.2,35.4l0,0c16.7,2.2,29.9-4.7,35.8-20.9l0,0
								C1446.5,1384.4,1437.5,1371.7,1422,1365.8L1422,1365.8z"/>
						</g>
					</g>
					<g>
						<path class="st8" d="M1432,1374.1c0.4,0.3,0.7,0.6,0.9,1l0,0l0.5,2.3c-0.1,0.6-0.3,1.1-0.4,1.7c-0.4,0.4-0.8,0.8-1.1,1.2
							c-2.5,1.2-5.2,1.6-7.9,1.7l0,0c1.8,2.1,3.8,4.2,5.1,6.7c0.1,0.5,0.1,0.9,0.2,1.4l-0.5,1.3l0,0l-0.2,0.1
							c-0.6,0-1.1-0.2-1.5-0.5l0,0c-2.2-2.6-4.2-5.4-6-8.3c-1.8,0.4-3.6,0.8-5.5,1.2l0,0c0.3,1.7,0.6,3.5,0.9,5.2l-0.8,2.9
							c-0.7,0.3-1.3,0.6-2,0.9c-4.8-0.6-8.9-3.7-12.7-6.5l0,0l-1.6-0.7c-0.5,0-1.1-0.1-1.6-0.1l-1.5,0.4l-1.3,0.8l-1,1.2
							c-0.2,0.5-0.3,1-0.5,1.5c0,0.6,0.1,1.1,0.1,1.7l0,0c0.6,6.2,2.8,12.1,6.8,16.9l0,0c0.6,0.8,1.3,1.4,2.2,1.9
							c0.2,0,0.4,0.1,0.6,0.1c0.9-0.2,1.8-0.6,2.6-1.2l0,0c2.4-1.5,4.9-3,7.4-4.4l0,0c0.2,0.1,0.4,0.2,0.7,0.3l0,0
							c0,0.5-0.2,1.1-0.3,1.6l-0.1,0.1l0,0c-3.2,2-6.2,4.3-8.3,7.4l0,0c-0.8,0.6-1.7,0.7-2.7,0.4l0,0c-7.4-4.9-10.5-13.2-11.7-21.6
							l0,0c-0.2-1.4-0.1-2.8,0.1-4.1c0.2-0.5,0.4-1,0.6-1.5l1.1-1.2c1.8-1.1,3.8-1.8,5.9-2c-0.5-1-0.8-2-1.1-3l0.1-0.3l0,0
							c1.2-2,2.7-3.7,4.5-5.1l1.2-0.3c0.5,0.1,0.9,0.1,1.4,0.2c3.3,0.8,6.2,2.6,8.2,5.4c0.4,0.2,0.9,0.5,1.3,0.7
							c1.9,0.1,3.8-0.1,5.7-0.7c-0.9-3-1.1-6.2-0.1-9.2l1-1.1c0.5-0.1,1.1-0.2,1.6-0.3c-1.4,3.3-1.4,7,0.4,10.1l0,0
							c3.1-0.6,6.4-1.5,8.5-3.9L1432,1374.1L1432,1374.1C1432,1374.1,1432,1374.1,1432,1374.1z M1402.6,1385.2
							c-0.1,0.1-0.2,0.2-0.3,0.4l0,0c2.6,1.6,5.4,3,8.3,3.7c0.6,0,1.2-0.1,1.9-0.1l1.3-1.1l0.4-2.4l0,0l-0.9-0.8
							C1409.7,1384,1406.2,1384.9,1402.6,1385.2L1402.6,1385.2L1402.6,1385.2L1402.6,1385.2L1402.6,1385.2L1402.6,1385.2
							L1402.6,1385.2L1402.6,1385.2L1402.6,1385.2L1402.6,1385.2C1402.6,1385.2,1402.6,1385.2,1402.6,1385.2L1402.6,1385.2z
							 M1412,1381.8c-2.5-1.4-5.2-2.5-8-2.9c-0.8,0.1-1.7,0.1-2.5,0.2l-1.4,0.8l-0.2,1c0.4,0.3,0.7,0.6,1.1,0.9
							c0.8,0.2,1.6,0.3,2.4,0.5C1406.3,1382.2,1409.2,1382,1412,1381.8C1412,1381.8,1412,1381.8,1412,1381.8
							C1412,1381.8,1412,1381.8,1412,1381.8S1412,1381.8,1412,1381.8S1412,1381.8,1412,1381.8L1412,1381.8L1412,1381.8z"/>
						<path class="st8" d="M1421.5,1402.6c0.7,2.6,1.3,5.2,2,7.8l0,0c4.4-2.6,6.9-7.1,8.5-11.8l0,0c0.4,0.5,0.8,1.1,1.1,1.6l0,0.2
							l0,0c-1.3,5.6-4,10.9-9.3,13.7l0,0c-1,0.5-2,0.7-3.1,0.5c-0.3-0.1-0.6-0.2-0.9-0.3c-0.2-0.2-0.4-0.4-0.6-0.6l-0.1-0.9
							c0.1-0.4,0.3-0.8,0.4-1.2l0,0c1.2-2.9,0.9-6,1-9.1l0,0C1420.9,1402.6,1421.2,1402.6,1421.5,1402.6
							C1421.5,1402.7,1421.5,1402.7,1421.5,1402.6L1421.5,1402.6z"/>
					</g>
				</g>
				<path class="st8" d="M1625.4,1265.3c0.3,1,0.6,2,1,2.9l0,0c0.9,3.4-0.7,6.7-4,8.1l0,0c-62.6,23.5-125.4,46.4-188,69.8
					c-16.6,6.2-33.2,12.4-49.8,18.6c-3.3,1-6.5-0.4-7.9-3.5c0,0,0,0,0,0l0,0l0,0l0,0l0,0l0,0l0,0l0,0c-1.1-3.2,0.3-6.4,3.4-7.8l0,0
					c62.7-24.4,125.5-48.6,188.3-72.7c16.4-6.3,32.8-12.7,49.2-19l0,0C1620.9,1260.6,1624.2,1262.1,1625.4,1265.3L1625.4,1265.3
					C1625.4,1265.3,1625.4,1265.3,1625.4,1265.3L1625.4,1265.3z"/>
				<path class="st8" d="M1649.7,1427.2c0,1,0,2,0,3l0,0c-0.2,3.4-2.7,5.9-6.1,6.1c-64.2,1.6-128.4,3.3-192.6,5.2
					c-17.9,0.5-35.8,1-53.8,1.6c-3.4-0.1-5.9-2.4-6.2-5.7l0,0l0,0c0,0,0,0,0,0s0,0,0,0l0,0l0,0l0,0c0.1-3.4,2.4-5.8,5.8-6.1
					c64.1-2.6,128.1-5.1,192.2-7.5c18.2-0.7,36.4-1.3,54.6-2.1C1647,1421.5,1649.5,1423.9,1649.7,1427.2L1649.7,1427.2
					C1649.7,1427.2,1649.7,1427.2,1649.7,1427.2z"/>
				<g>
					<path class="st8" d="M1277.3,1499.2c0.1-0.2,0.1-0.5,0.2-0.7l0,0c0.3,0.1,0.6,0.1,0.8,0l0.3-0.1l0.3-0.2
						c0.3-0.3,0.4-0.7,0.5-1.2l0,0c0.6-2.3,1.2-4.6,1.7-6.9l0,0c0.3-0.8,0.3-1.7,0.1-2.5c-0.1-0.1-0.1-0.3-0.2-0.4l-0.3-0.3
						l-0.4-0.2c-0.7-0.1-1.4,0-2,0.3l0,0c-0.4,0.2-0.8,0.4-1.1,0.8l0,0c-0.7,2.7-1.4,5.4-2,8.1l0,0c-0.1,0.4-0.1,0.8-0.1,1.2
						l0.1,0.3c0.2,0.3,0.5,0.5,0.9,0.7l0,0c-0.1,0.2-0.1,0.5-0.2,0.7c-2.4-0.6-4.7-1.2-7.1-1.9l0,0c0.1-0.2,0.1-0.5,0.2-0.7l0,0
						c0.3,0.1,0.5,0.1,0.8,0l0.3-0.1l0.2-0.2c0.3-0.3,0.4-0.7,0.5-1.1l0,0c0.6-2.4,1.2-4.9,1.8-7.3l0,0c0.3-0.7,0.3-1.5,0-2.2
						l-0.2-0.3c-0.2-0.2-0.5-0.3-0.8-0.4c-1-0.1-2,0.3-2.8,0.9l-0.2,0.3l0,0c-0.7,2.7-1.3,5.3-2,8l0,0c-0.1,0.4-0.1,0.8-0.1,1.2
						l0.1,0.3c0.2,0.3,0.5,0.5,0.9,0.7l0,0c-0.1,0.2-0.1,0.5-0.2,0.7c-2.4-0.6-4.9-1.3-7.3-1.9l0,0c0.1-0.2,0.1-0.5,0.2-0.7l0,0
						c0.5,0.1,0.9,0,1.3-0.1l0.3-0.2c0.3-0.3,0.5-0.7,0.5-1.1l0,0c0.7-2.9,1.5-5.8,2.2-8.8l0,0c0.1-0.4,0.2-0.9,0.1-1.4l-0.2-0.3
						c-0.3-0.3-0.7-0.6-1.1-0.7l0,0c0.1-0.2,0.1-0.5,0.2-0.7l0,0c2,0.5,3.9,1,5.9,1.6c-0.2,0.8-0.4,1.5-0.6,2.3l0,0c0,0,0.1,0,0.1,0
						c1.4-1.4,3.2-1.9,5.1-1.5c1.8,0.5,3,1.8,3.3,3.7l0,0c1.5-1.3,3.3-1.8,5.2-1.5c2.5,0.9,3.6,2.8,3.1,5.4l0,0
						c-0.6,2.5-1.3,5-1.9,7.6l0,0c-0.1,0.4-0.2,0.9-0.1,1.3l0.1,0.3c0.3,0.3,0.6,0.5,1,0.6l0,0c-0.1,0.2-0.1,0.5-0.2,0.7
						C1282.2,1500.4,1279.8,1499.8,1277.3,1499.2L1277.3,1499.2C1277.3,1499.2,1277.3,1499.2,1277.3,1499.2L1277.3,1499.2z"/>
					<path class="st8" d="M1301.7,1505.1l-0.7,0.3l-0.6,0.1c-1-0.3-1.9-0.5-2.9-0.7l0,0c0.2-0.7,0.3-1.3,0.5-2l0,0
						c-1.5,1-3.2,1.2-4.9,0.8l0,0c-2.5-0.9-3.6-2.9-2.9-5.5l0,0c0.6-2.5,1.2-4.9,1.9-7.4l0,0c0.1-0.4,0.2-0.9,0.1-1.3
						c0-0.1-0.1-0.2-0.1-0.3c-0.3-0.3-0.6-0.6-1-0.7l0,0c0.1-0.2,0.1-0.5,0.2-0.7l0,0c1.9,0.5,3.8,1,5.8,1.5
						c-0.8,3.4-1.7,6.8-2.6,10.2l0,0c-0.2,0.6-0.2,1.1-0.1,1.7l0.2,0.4l0.3,0.3c0.2,0.2,0.5,0.3,0.8,0.4l0,0c1,0.2,2-0.1,2.9-0.8
						l0,0c0.7-2.8,1.4-5.6,2.1-8.4l0,0c0.1-0.4,0.2-0.9,0.1-1.4l-0.2-0.3c-0.4-0.3-0.8-0.6-1.3-0.7l0,0c0.1-0.2,0.1-0.5,0.2-0.7l0,0
						c2,0.5,4.1,1.1,6.1,1.6c-0.9,3.6-1.8,7.2-2.7,10.9l0,0c-0.1,0.4-0.2,0.9-0.1,1.4l0.2,0.3c0.3,0.3,0.7,0.6,1.2,0.7l0,0
						c-0.1,0.2-0.1,0.5-0.2,0.7C1303,1505.3,1302.3,1505.2,1301.7,1505.1L1301.7,1505.1L1301.7,1505.1L1301.7,1505.1L1301.7,1505.1
						L1301.7,1505.1L1301.7,1505.1L1301.7,1505.1L1301.7,1505.1L1301.7,1505.1z"/>
					<path class="st8" d="M1318.1,1499.2c0-1-0.3-2-0.8-2.9l0,0c-0.5-0.8-1.2-1.3-2.1-1.6c-1.1-0.3-2,0.2-2.5,1.2l0,0l-0.1,0.4
						c0.3,1.3,1.1,2.3,2.3,3l0,0c2.2,1.3,3.3,3.4,3,5.9l0,0c-0.9,2.7-3.1,4-5.9,3.4l0,0c-1.1-0.4-2.2-0.9-3.1-1.6l0,0
						c-0.2-0.2-0.4-0.3-0.7-0.4c0,0-0.1,0-0.1,0c-0.4,0.1-0.7,0.3-0.9,0.7c-0.3-0.1-0.5-0.1-0.8-0.2l0,0c0.4-1.7,0.8-3.4,1.3-5l0,0
						c0.3,0.1,0.6,0.1,0.9,0.2c-0.1,2.4,1,4.3,3.2,5.1l0,0c1.3,0.3,2.3-0.1,2.8-1.4l0,0l0.1-0.4c-0.4-1.3-1.2-2.3-2.3-3l0,0
						c-2.1-1.3-3.4-3.4-3.2-5.9l0,0c0.9-2.6,3.2-3.8,5.9-3.2c0.8,0.2,1.6,0.6,2.3,1.1l0,0c0.3,0.2,0.6,0.3,0.9,0.5l0,0
						c0.4,0.1,0.7-0.1,0.9-0.4l0,0c0.2,0.1,0.4,0.1,0.7,0.2c-0.4,1.5-0.7,2.9-1.1,4.4C1318.6,1499.4,1318.3,1499.3,1318.1,1499.2
						L1318.1,1499.2C1318.1,1499.2,1318.1,1499.2,1318.1,1499.2L1318.1,1499.2z"/>
					<path class="st8" d="M1334.9,1512.9c-1.1,0.8-2.5,1.1-3.9,0.8l0,0c-1.4-0.4-2.1-1.3-2-2.8l0,0c-1.7,1-3.5,1.3-5.4,0.8l0,0
						c-1-0.2-1.9-0.8-2.4-1.7c-0.3-0.8-0.4-1.6-0.1-2.4l0,0c0.4-1.4,1.5-2.4,2.9-2.9l0,0c2.2-0.5,4.5-0.8,6.7-0.7
						c0.2-0.7,0.3-1.4,0.5-2.1l0,0c0.2-0.7,0.2-1.4,0.1-2l-0.2-0.5l-0.4-0.4c-0.4-0.3-0.8-0.5-1.2-0.6c-0.7-0.2-1.3-0.2-1.9,0.1
						l-0.2,0.2c0,0.1-0.1,0.2-0.1,0.3l0,0c0,0.3,0,0.5,0.2,0.8l0,0c0.2,0.4,0.3,0.9,0.3,1.4l0,0c-0.5,1.1-1.4,1.6-2.5,1.3l0,0
						c-1.2-0.4-1.7-1.3-1.5-2.6l0,0l0.4-0.9l0.6-0.7c1.8-1.1,3.8-1.3,5.8-0.6c1.8,0.4,3.3,1.3,4.5,2.6l0.5,0.9l0.2,1
						c0,0.4-0.1,0.7-0.1,1.1l0,0c-0.7,2.7-1.4,5.3-2,8l0,0c-0.1,0.2-0.1,0.5,0,0.7l0.1,0.1l0.1,0.1l0.2,0.1l0,0c0.1,0,0.3,0,0.4,0
						l0,0c0.1-0.1,0.3-0.1,0.4-0.2l0,0C1334.7,1512.4,1334.8,1512.7,1334.9,1512.9L1334.9,1512.9
						C1334.9,1512.9,1334.9,1512.9,1334.9,1512.9L1334.9,1512.9z M1330.5,1505.2c-1.2,0.7-2.5,1.3-3.9,1.7l-0.5,0.4l-0.3,0.6l0,0
						c-0.3,1.1,0,2,1.1,2.5l0,0c0.9,0.2,1.8,0,2.5-0.7l0,0C1329.8,1508.2,1330.2,1506.7,1330.5,1505.2L1330.5,1505.2L1330.5,1505.2
						L1330.5,1505.2L1330.5,1505.2C1330.5,1505.2,1330.5,1505.2,1330.5,1505.2L1330.5,1505.2L1330.5,1505.2L1330.5,1505.2z"/>
					<path class="st8" d="M1349,1507.3c0-1-0.3-2-0.8-2.9l0,0c-0.5-0.8-1.2-1.3-2.1-1.6c-1.2-0.3-2,0.2-2.5,1.3l0,0l-0.1,0.4
						c0.3,1.3,1.2,2.3,2.3,3l0,0c2.2,1.3,3.3,3.4,3,5.9l0,0c-0.9,2.7-3.1,4-5.9,3.4l0,0c-1.1-0.4-2.2-0.9-3.1-1.6l0,0
						c-0.2-0.2-0.4-0.3-0.7-0.4c0,0-0.1,0-0.1,0c-0.4,0.1-0.7,0.3-0.9,0.7c-0.3-0.1-0.5-0.1-0.8-0.2l0,0c0.4-1.7,0.9-3.4,1.3-5l0,0
						c0.3,0.1,0.6,0.1,0.9,0.2c-0.1,2.4,1,4.3,3.2,5.1l0,0c1.3,0.3,2.3-0.2,2.8-1.4l0,0l0.1-0.4c-0.3-1.3-1.2-2.3-2.3-3l0,0
						c-2.2-1.3-3.3-3.4-3.2-5.9l0,0c0.9-2.6,3.2-3.8,6-3.2c0.8,0.2,1.6,0.6,2.3,1.1l0,0c0.3,0.2,0.6,0.3,0.9,0.5l0,0
						c0.4,0.1,0.7-0.1,0.9-0.4l0,0c0.2,0.1,0.5,0.1,0.7,0.2c-0.4,1.5-0.8,3-1.1,4.4C1349.6,1507.5,1349.3,1507.4,1349,1507.3
						L1349,1507.3C1349,1507.3,1349,1507.3,1349,1507.3L1349,1507.3z"/>
					<path class="st8" d="M1359.8,1520.8c0.1-0.2,0.1-0.5,0.2-0.7l0,0c0.4,0.1,0.8,0,1.1-0.1l0.3-0.2c0.3-0.3,0.5-0.7,0.5-1.2l0,0
						c0.6-2.3,1.2-4.6,1.8-6.9l0,0c0.3-0.8,0.4-1.7,0.2-2.6l-0.2-0.3l-0.3-0.3c-0.2-0.1-0.3-0.1-0.5-0.2c-0.8-0.2-1.7,0-2.4,0.5l0,0
						c-0.3,0.1-0.5,0.4-0.7,0.6l0,0c-0.7,2.7-1.4,5.4-2.1,8.1l0,0c-0.1,0.4-0.2,0.8-0.1,1.3l0.1,0.3c0.2,0.3,0.6,0.5,1,0.7l0,0
						c-0.1,0.2-0.1,0.5-0.2,0.7c-2.5-0.6-4.9-1.3-7.4-1.9l0,0c0.1-0.2,0.1-0.5,0.2-0.7l0,0c0.4,0.1,0.9,0,1.3,0l0.3-0.2
						c0.3-0.4,0.5-0.9,0.6-1.4l0,0c1.3-5.1,2.6-10.2,3.9-15.4l0,0c0.1-0.4,0.2-0.9,0.1-1.3l-0.2-0.3c-0.3-0.3-0.7-0.5-1.1-0.7l0,0
						c0.1-0.2,0.1-0.5,0.2-0.7l0,0c2,0.5,4,1,5.9,1.5c-0.7,2.9-1.5,5.7-2.2,8.6l0,0c1.5-1.2,3.3-1.6,5.1-1.2
						c2.4,0.8,3.4,2.7,2.9,5.2l0,0c-0.7,2.6-1.3,5.1-2,7.7l0,0c-0.1,0.5-0.2,0.9-0.1,1.4c0,0.1,0.1,0.2,0.1,0.3l0.2,0.3
						c0.2,0.2,0.5,0.3,0.7,0.3l0,0c-0.1,0.2-0.1,0.5-0.2,0.7C1364.6,1522,1362.2,1521.4,1359.8,1520.8
						C1359.8,1520.8,1359.8,1520.8,1359.8,1520.8L1359.8,1520.8z"/>
					<path class="st8" d="M1370,1523.4c0.1-0.2,0.1-0.5,0.2-0.7l0,0c0.5,0,0.9,0,1.4-0.2l0.3-0.2c0.3-0.4,0.4-0.8,0.5-1.2l0,0
						c0.7-2.9,1.5-5.8,2.2-8.8l0,0c0.1-0.4,0.2-0.9,0.1-1.3l-0.1-0.3c-0.3-0.3-0.7-0.6-1.1-0.8l0,0c0.1-0.2,0.1-0.5,0.2-0.7l0,0
						c2,0.5,4,1,5.9,1.5c-1,3.9-2,7.7-2.9,11.6l0,0c-0.1,0.4-0.2,0.9-0.1,1.3l0.1,0.3c0.2,0.3,0.6,0.5,0.9,0.7l0,0
						c-0.1,0.2-0.1,0.5-0.2,0.7C1375,1524.6,1372.5,1524,1370,1523.4C1370,1523.4,1370,1523.4,1370,1523.4L1370,1523.4z
						 M1377.9,1507.9c-1.4-0.5-2-1.5-1.8-3l0,0c0.5-1.4,1.6-2,3-1.8c1.3,0.5,2,1.6,1.7,3l0,0
						C1380.4,1507.5,1379.4,1508.1,1377.9,1507.9L1377.9,1507.9z"/>
					<path class="st8" d="M1391,1525.4c-1.3,1.9-3.2,2.7-5.4,2.3l0,0c-2-0.6-3-2.1-2.6-4.2l0,0c0.8-3.3,1.7-6.6,2.5-9.9
						c-0.5-0.1-1.1-0.3-1.6-0.4l0,0c0.1-0.3,0.1-0.6,0.2-0.8l0,0c2.5-1,4.7-2.5,6.6-4.4l0,0c0.3,0.1,0.5,0.1,0.8,0.2
						c-0.4,1.7-0.9,3.4-1.3,5.2l0,0c1,0.2,1.9,0.5,2.9,0.7c-0.1,0.5-0.2,0.9-0.3,1.4c-1-0.2-1.9-0.5-2.9-0.7l0,0
						c-0.8,3.1-1.6,6.1-2.3,9.2l0,0c-0.2,0.5-0.2,1.1,0,1.6l0.2,0.2l0.2,0.2l0.3,0.1l0,0c0.9,0,1.7-0.4,2.2-1.2l0,0
						C1390.5,1525,1390.7,1525.2,1391,1525.4L1391,1525.4C1391,1525.4,1391,1525.4,1391,1525.4L1391,1525.4z"/>
					<path class="st8" d="M1399.6,1531.3c-4.1-1.1-6-5.1-5-9.2l0,0c1.1-4,4.8-6.7,8.9-5.8c4.1,1.1,5.9,5.2,4.9,9.2l0,0
						C1407.4,1529.5,1403.8,1532.2,1399.6,1531.3L1399.6,1531.3z M1403.2,1517.3l-0.8-0.1l-0.7,0.2c-0.2,0.2-0.4,0.3-0.6,0.5
						c-1,1.7-1.8,3.7-2.2,5.6l0,0c-0.5,1.7-0.7,3.5-0.6,5.3l0.3,0.7l0.5,0.5l0.7,0.3l0,0l0.7,0.1l0.6-0.2l0.6-0.5c1-1.5,1.7-3.2,2-5
						l0,0c0.6-1.9,0.9-4,0.8-6l-0.3-0.7l-0.5-0.5L1403.2,1517.3L1403.2,1517.3z"/>
					<path class="st8" d="M1418.7,1535.5c0.1-0.2,0.1-0.5,0.2-0.7l0,0c0.4,0.1,0.9,0.1,1.3,0l0.1-0.1l0.1-0.1l0,0
						c0-0.5-0.1-1.1-0.4-1.6l0,0c-0.6-1.6-1.2-3.2-1.9-4.8l0,0c-0.3,0.2-0.6,0.4-0.9,0.6l0,0c-0.3,1.2-0.6,2.3-0.9,3.5l0,0
						c-0.1,0.4-0.2,0.9-0.1,1.3l0.1,0.3c0.3,0.3,0.7,0.5,1.1,0.7l0,0c-0.1,0.2-0.1,0.5-0.2,0.7c-2.4-0.6-4.9-1.2-7.3-1.8l0,0
						c0.1-0.2,0.1-0.5,0.2-0.7l0,0c0.4,0.1,0.8,0,1.1-0.1c0.4-0.3,0.7-0.8,0.8-1.3l0,0c1.3-5.2,2.6-10.4,4-15.6l0,0
						c0.1-0.4,0.1-0.8,0-1.2l-0.1-0.3c-0.2-0.3-0.6-0.5-0.9-0.6l0,0c0.1-0.2,0.1-0.5,0.2-0.7l0,0c1.9,0.5,3.8,0.9,5.7,1.4
						c-1.1,4.4-2.2,8.8-3.4,13.2l0,0c1.6-1,3.3-2,4.9-3l0,0c0.4-0.2,0.7-0.6,0.9-1l0,0l0-0.2l0-0.1l-0.1-0.1
						c-0.2-0.2-0.5-0.4-0.8-0.5l0,0c-0.2-0.1-0.5-0.2-0.7-0.3l0,0c0.1-0.2,0.1-0.5,0.2-0.7l0,0c2.2,0.5,4.4,1.1,6.5,1.6
						c-0.1,0.2-0.1,0.5-0.2,0.7c-2.5,0-4.8,1-6.8,2.6l0,0c1.3,3.2,2.6,6.5,3.9,9.7l0,0c0.1,0.3,0.3,0.6,0.6,0.7l0,0
						c-0.1,0.2-0.1,0.5-0.2,0.7C1423.5,1536.7,1421.1,1536.1,1418.7,1535.5C1418.7,1535.5,1418.7,1535.5,1418.7,1535.5
						L1418.7,1535.5z"/>
					<path class="st8" d="M1429.2,1538.1c0.1-0.2,0.1-0.5,0.2-0.7l0,0c0.5,0,0.9,0,1.3-0.2l0.3-0.2c0.3-0.4,0.4-0.8,0.5-1.2l0,0
						c0.7-2.9,1.5-5.8,2.2-8.7l0,0c0.1-0.4,0.2-0.9,0.1-1.3l-0.1-0.3c-0.3-0.3-0.7-0.6-1.1-0.8l0,0c0.1-0.2,0.1-0.5,0.2-0.7l0,0
						c2,0.5,3.9,1,5.9,1.4c-1,3.8-1.9,7.7-2.9,11.5l0,0c-0.1,0.4-0.2,0.9-0.1,1.3l0.1,0.3c0.2,0.3,0.6,0.5,0.9,0.6l0,0
						c-0.1,0.2-0.1,0.5-0.2,0.7C1434.1,1539.3,1431.6,1538.7,1429.2,1538.1C1429.2,1538.1,1429.2,1538.1,1429.2,1538.1
						L1429.2,1538.1z M1437.1,1522.6c-1.4-0.5-2-1.5-1.7-2.9l0,0c0.5-1.4,1.6-2,3-1.8c1.3,0.5,1.9,1.6,1.7,3l0,0
						C1439.6,1522.2,1438.5,1522.8,1437.1,1522.6L1437.1,1522.6z"/>
				</g>
			</g>
		</g>
	</g>
</g>
</svg>
